<svg width="32" height="32" viewBox="0 0 32 32" fill="none" xmlns="http://www.w3.org/2000/svg">
<path fill-rule="evenodd" clip-rule="evenodd" d="M6.43824 29.7481C9.21278 30.6334 16 28.9006 16 28.9006C16 28.9006 22.7872 30.6334 25.5618 29.7481C30.3531 28.2193 30.0735 21.0592 29.9473 17.8252C29.8194 14.5512 29.8796 11.1682 28.984 7.99107C28.3618 5.78385 27.4285 2.00001 25.8729 2C25.1231 2 23.384 3.26128 21.8284 5.15319C20.5518 6.70592 19.5575 8.74056 17.8667 9.88299H14.1333C12.4425 8.74056 11.4482 6.70592 10.1716 5.15319C8.61602 3.26128 6.87694 2 6.12713 2C4.57156 2.00001 3.63818 5.78385 3.01602 7.99107C2.12038 11.1682 2.18057 14.5512 2.05276 17.8252C1.92648 21.0592 1.64695 28.2193 6.43824 29.7481ZM4.81689 13.675C5.11359 13.3236 7.24683 13.2865 10.4 14.9281C13.5531 16.5697 14.1358 18.684 13.6974 22.0854C11.0247 21.5219 8.02797 21.1334 6.35554 18.7119C5.33647 17.2364 4.52021 14.0264 4.81689 13.675ZM27.1831 13.675C26.8864 13.3236 24.7532 13.2865 21.6 14.9281C18.4469 16.5697 17.8642 18.684 18.3027 22.0854C20.9753 21.5219 23.972 21.1334 25.6445 18.7119C26.6636 17.2364 27.4798 14.0264 27.1831 13.675Z" fill="url(#paint0_linear_161_262)"/>
<path d="M25.873 2.2002C26.1739 2.20026 26.4726 2.38261 26.7725 2.75195C27.0704 3.11903 27.3438 3.64008 27.5938 4.24414C28.0935 5.45198 28.4789 6.93406 28.792 8.04492C29.4575 10.4058 29.59 12.8804 29.6689 15.3584L29.7471 17.833C29.8103 19.453 29.9104 22.0268 29.4033 24.3838C28.8955 26.7438 27.7938 28.826 25.501 29.5576C24.841 29.7682 23.9243 29.8268 22.9043 29.7891C21.8888 29.7515 20.7888 29.6195 19.7715 29.459C18.7546 29.2985 17.8235 29.11 17.1465 28.9619C16.8083 28.888 16.5336 28.8247 16.3438 28.7793C16.2488 28.7566 16.1749 28.7379 16.125 28.7256C16.1001 28.7194 16.0811 28.7151 16.0684 28.7119C16.062 28.7103 16.0569 28.7088 16.0537 28.708C16.0524 28.7077 16.0515 28.7072 16.0508 28.707H16.0498L16 28.6943L15.9502 28.707H15.9492C15.9485 28.7072 15.9476 28.7077 15.9463 28.708C15.9431 28.7088 15.938 28.7103 15.9316 28.7119C15.9189 28.7151 15.8999 28.7194 15.875 28.7256C15.8251 28.7379 15.7512 28.7566 15.6562 28.7793C15.4664 28.8247 15.1917 28.888 14.8535 28.9619C14.1765 29.11 13.2454 29.2985 12.2285 29.459C11.2112 29.6195 10.1112 29.7515 9.0957 29.7891C8.0757 29.8268 7.15899 29.7682 6.49902 29.5576C4.20621 28.826 3.10448 26.7438 2.59668 24.3838C2.21641 22.6162 2.17711 20.7267 2.20801 19.209L2.25293 17.833C2.38141 14.5421 2.32166 11.1926 3.20898 8.04492C3.52209 6.93409 3.90653 5.45189 4.40625 4.24414C4.65619 3.64008 4.92957 3.11903 5.22754 2.75195C5.52737 2.38262 5.82614 2.20027 6.12695 2.2002C6.26698 2.2002 6.48253 2.26186 6.7666 2.40527C7.04529 2.54598 7.37078 2.75555 7.72559 3.02637C8.43499 3.56784 9.24848 4.34488 10.0176 5.28027C10.6524 6.05246 11.2042 6.92779 11.8359 7.79004C12.4593 8.6408 13.1469 9.45792 14.0215 10.0488L14.0723 10.083H17.9277L17.9785 10.0488C18.8531 9.45792 19.5407 8.6408 20.1641 7.79004C20.7959 6.92768 21.3484 6.05253 21.9834 5.28027C22.7524 4.34496 23.5651 3.5678 24.2744 3.02637C24.6292 2.75555 24.9547 2.54598 25.2334 2.40527C25.5175 2.26186 25.733 2.2002 25.873 2.2002ZM5.35254 13.293C5.19683 13.3075 5.06014 13.3332 4.94824 13.3711C4.84078 13.4075 4.7352 13.4617 4.66406 13.5459C4.61647 13.6023 4.59248 13.6703 4.5791 13.7275C4.56508 13.7876 4.55798 13.855 4.55566 13.9248C4.55106 14.0648 4.56471 14.2375 4.59082 14.4297C4.64322 14.8154 4.75151 15.3058 4.90039 15.8271C5.19697 16.8657 5.66361 18.061 6.19141 18.8252C7.05888 20.0812 8.26671 20.8042 9.58301 21.2832C10.8927 21.7598 12.3318 22.002 13.6562 22.2812L13.8682 22.3262L13.8955 22.1113C14.1163 20.3988 14.0855 18.9772 13.5801 17.7695C13.0718 16.555 12.0965 15.5862 10.4922 14.751C8.89934 13.9217 7.55728 13.5123 6.56836 13.3564C6.07465 13.2786 5.66441 13.2638 5.35254 13.293ZM26.6475 13.293C26.3356 13.2638 25.9253 13.2786 25.4316 13.3564C24.4427 13.5123 23.1007 13.9217 21.5078 14.751C19.9035 15.5862 18.9282 16.555 18.4199 17.7695C17.9145 18.9772 17.8837 20.3988 18.1045 22.1113L18.1318 22.3262L18.3438 22.2812C19.6682 22.002 21.1073 21.7598 22.417 21.2832C23.7333 20.8042 24.9411 20.0812 25.8086 18.8252C26.3364 18.061 26.803 16.8657 27.0996 15.8271C27.2485 15.3058 27.3568 14.8154 27.4092 14.4297C27.4353 14.2375 27.4489 14.0648 27.4443 13.9248C27.442 13.855 27.4349 13.7876 27.4209 13.7275C27.4075 13.6703 27.3835 13.6023 27.3359 13.5459C27.2648 13.4617 27.1592 13.4075 27.0518 13.3711C26.9399 13.3332 26.8032 13.3075 26.6475 13.293Z" stroke="url(#paint1_linear_161_262)" stroke-opacity="0.5" stroke-width="0.4"/>
<defs>
<linearGradient id="paint0_linear_161_262" x1="16" y1="2" x2="16" y2="30" gradientUnits="userSpaceOnUse">
<stop stop-color="#D966FF"/>
<stop offset="1" stop-color="#C766FF"/>
</linearGradient>
<linearGradient id="paint1_linear_161_262" x1="16" y1="2" x2="16" y2="30" gradientUnits="userSpaceOnUse">
<stop stop-color="white"/>
<stop offset="1" stop-color="white" stop-opacity="0"/>
</linearGradient>
</defs>
</svg>
